Simulation
nRows=32
nColumns=15
endheader
time  TH_x TH_y TH_z SC_y  SC_z  SC_x  AC_y  AC_z  AC_x  GH_y  GH_z  GH_yy  EL_x  PS_y
8.6175  0.000000  0.000000  0.000000  -34.259165439271925  -3.6955080732279684  15.326956807037236  49.72048943545585  -22.11000363113502  -4.537411682765022  -20.4154698103321  21.2430393887432  25.93525181083525  20.626108920180855  120.000000
8.67495  0.000000  0.000000  0.000000  -34.320721029911184  -3.5969364502798746  14.060069805090121  50.37362641875377  -21.57902243901187  -3.0312204895104027  -20.896678978355713  22.062606680821904  26.126032806204066  20.552533823912807  120.000000
8.7324  0.000000  0.000000  0.000000  -34.41246662833267  -3.607945423435567  12.648275716322757  51.23335958746253  -21.105033783342307  -1.2229558505713194  -20.633696212202015  23.075001593524192  25.819399238920756  20.654922810316158  120.000000
8.78985  0.000000  0.000000  0.000000  -34.538201008070324  -3.72523061836267  11.10323312071307  52.30812932489961  -20.634150392981798  0.8645003413587946  -19.549208989586457  24.235959566738977  24.91779704167499  20.91052007607542  120.000000
8.8473  0.000000  0.000000  0.000000  -34.702145484751355  -3.9158784724849345  9.467740104729094  53.58548358376792  -20.092874975019658  3.1714670396683715  -17.657117366359834  25.47962710820118  23.367243975259083  21.250383910663032  120.000000
8.90475  0.000000  0.000000  0.000000  -34.92810536858038  -4.116843155850238  7.815706434520822  55.043336980747874  -19.4062408658517  5.61519153858509  -14.99995534528792  26.72194056699612  21.12473409361942  21.595992487326072  120.000000
8.9622  0.000000  0.000000  0.000000  -35.28240457907951  -4.243025875225706  6.249986449458455  56.6664753817185  -18.517921608828825  8.106064218704894  -11.568886471292858  27.873109555670123  18.09979620855214  21.89328624424479  120.000000
9.01965  0.000000  0.000000  0.000000  -35.86612514575754  -4.178556661018747  4.902626930452947  58.43154454669825  -17.4101278419016  10.558592484821556  -7.30228560019916  28.857033427508867  14.152099469189956  22.12412383724909  120.000000
9.0771  0.000000  0.000000  0.000000  -36.73728164250603  -3.769228953960075  3.9372403900166413  60.30084148582081  -16.12846552637804  12.90218441598168  -2.1639995327674373  29.633405375996166  9.134313909089995  22.281340312426142  120.000000
9.13455  0.000000  0.000000  0.000000  -37.83169861739583  -2.8588059118334557  3.5612232806671935  62.21676706347748  -14.77783509722171  15.087547898538775  3.7602062111376067  30.208635171222173  2.9739262053814954  22.355636138096635  120.000000
9.192  0.000000  0.000000  0.000000  -38.99534821772329  -1.3397000234834107  3.9939031280493156  64.12297111617866  -13.4572354827137  17.071751933061424  10.343079057998505  30.642523571219126  -4.367194510652304  22.331315260413664  120.000000
9.24945  0.000000  0.000000  0.000000  -40.09803918204034  0.8148628276757822  5.423353105919949  65.96520682226878  -12.21707478235346  18.812259659758553  17.491586429924162  31.061556413833856  -12.900068365395041  22.203211971404755  120.000000
9.3069  0.000000  0.000000  0.000000  -41.13514378130674  3.5673537068971917  7.971673448709702  67.66629829037717  -11.091634677630758  20.276772189083395  25.07725149617081  31.675119323674203  -22.50132849912135  21.973744767104876  120.000000
9.36435  0.000000  0.000000  0.000000  -42.255048228659426  6.826436836434313  11.678697625173003  69.10573380289397  -10.125847077848281  21.460909088119948  32.83435672104566  32.70838415043221  -32.81563652560768  21.636233067584193  120.000000
9.421800000000001  0.000000  0.000000  0.000000  -43.659190117301435  10.421250988205449  16.494967347497017  70.13624866362943  -9.358215972032616  22.377803574288777  40.37145416487852  34.29013367222204  -43.28899121654275  21.194506965488962  120.000000
9.47925  0.000000  0.000000  0.000000  -45.46430787129062  14.088022303071295  22.256990486366124  70.61692366958589  -8.81781767101147  23.052666013381284  47.28750077499809  36.38933300972943  -53.319751846231966  20.66962173074259  120.000000
9.5367  0.000000  0.000000  0.000000  -47.64172339885369  17.527066614338928  28.691387870747214  70.46342346510062  -8.522177587244919  23.508983471525934  53.289751404601596  38.833848668852546  -62.404339429748084  20.107217765226512  120.000000
9.59415  0.000000  0.000000  0.000000  -50.03142131943462  20.459632430870204  35.40602135923556  69.68660486416655  -8.380124828677127  23.713219741863064  58.24897506935267  41.39101220815709  -70.21218582518398  19.557165218879906  120.000000
9.6516  0.000000  0.000000  0.000000  -52.42694553372774  22.651013766600457  41.93508353308749  68.37547368881094  -8.244613984295556  23.638215894874566  62.19378909613562  43.803661998418185  -76.58691667458255  19.05390663854468  120.000000
9.70905  0.000000  0.000000  0.000000  -54.65175350633182  23.980023399949808  47.83416262775856  66.71823304569648  -8.065323733535084  23.320404686701572  65.23881762681823  45.878597366729814  -81.49994551695673  18.629686711486265  120.000000
9.7665  0.000000  0.000000  0.000000  -56.53579751348406  24.492670668435608  52.74699620979865  64.95901318665543  -7.873874490608572  22.828269038366  67.51849752235084  47.52912412077962  -85.01499968855217  18.305380935899358  120.000000
9.82395  0.000000  0.000000  0.000000  -57.92666537630625  24.386749093902743  56.4657514500237  63.331559041312474  -7.7135258635121975  22.2231560067424  69.15122688444757  48.751558633189774  -87.27363746028907  18.088473888887474  120.000000
9.8814  0.000000  0.000000  0.000000  -58.752039648072184  23.95352543331764  58.95246100287067  62.02516958134626  -7.630725832750962  21.54970695072945  70.22140142241572  49.59575255363996  -88.46842093521184  17.98163680611862  120.000000
9.93885  0.000000  0.000000  0.000000  -59.049824224420696  23.518365738536314  60.3245774164259  61.15009045336187  -7.70862749018633  20.852988198829166  70.8074135495027  50.11112932957125  -88.82189914278734  17.970011009345786  120.000000
9.9963  0.000000  0.000000  0.000000  -58.94767633758352  23.34608572190889  60.797009695306926  60.74570808375233  -8.06353664316212  20.1651872672385  70.9917753387421  50.31689551241838  -88.53892109354007  18.022118229134293  120.000000
10.05375  0.000000  0.000000  0.000000  -58.496959086212534  23.49196505049307  60.453574594293855  60.80452716814492  -8.748483334123806  19.50559947842118  70.8224522697742  50.220334845424226  -87.72847717861437  18.104414885824013  120.000000
10.1112  0.000000  0.000000  0.000000  -57.60231864536168  23.776328641449428  59.12486140293956  61.291396474981106  -9.671114320724142  18.894282582999903  70.28407903611594  49.84281004459617  -86.35907612613816  18.196118450068205  120.000000
10.16865  0.000000  0.000000  0.000000  -56.2012677353776  23.913593011259316  56.61234123560261  62.13053020480714  -10.678489322762632  18.374788729579198  69.32982908157082  49.17110667625301  -84.29237996851006  18.28135005686099  120.000000
10.2261  0.000000  0.000000  0.000000  -54.37213451859194  23.61824889977821  52.873639334404366  63.20177719874757  -11.62254195725079  18.00289353668658  67.89311290734071  48.137583332183134  -81.33743592176121  18.3416300419186  120.000000
10.28355  0.000000  0.000000  0.000000  -52.29275932677128  22.67736871035122  48.03294275160281  64.36271066918326  -12.347299653833815  17.819079033176255  65.86620972410294  46.66561727243305  -77.29603550798636  18.360137525331268  120.000000
10.341000000000001  0.000000  0.000000  0.000000  -50.1722412523398  21.023201432275407  42.350237513184254  65.47876194518832  -12.712203170810866  17.834623288054427  63.081848507255735  44.73213358078898  -71.99175163277103  18.338964661418444  120.000000
10.39845  0.000000  0.000000  0.000000  -48.172777551295226  18.76197484002331  36.154411472259575  66.45414254870752  -12.659932733120097  18.049476669365596  59.321682124635224  42.411613196410975  -65.28815324767275  18.3104323992641  120.000000
